PathFileType	4	(X/Y/Z)	D:\Share\Shared_Data\Ergonomics\Sit To Stand Pertubation\S2\Unperturbed.trc
DataRate	CameraRate	NumFrames	NumMarkers	Units	OrigDataRate	OrigDataStartFrame	OrigNumFrames	
100	100	17	18	m	100	3311	241
Frame#	Time	R_Toe			R_ASIS			R_Pelvis			V_Sacral			L_Pelvis			L_ASIS			Clavical			R_Acromium			L_Acromium			Sternum			Torso			R_Thigh_Med			R_Thigh_Lat			R_Thigh			R_Shank_Med			R_Shank_Lat			R_Shank			R_Heel			
		X1	Y1	Z1	X2	Y2	Z2	X3	Y3	Z3	X4	Y4	Z4	X5	Y5	Z5	X6	Y6	Z6	X7	Y7	Z7	X8	Y8	Z8	X9	Y9	Z9	X10	Y10	Z10	X11	Y11	Z11	X12	Y12	Z12	X13	Y13	Z13	X14	Y14	Z14	X15	Y15	Z15	X16	Y16	Z16	X17	Y17	Z17	X18	Y18	Z18	

3311	33.1	0.44018243	0.071983238	0.14755795	0.061627132	0.63542267	0.14697658	-0.010052173	0.66375879	0.18328139	-0.15619702	0.64627411	0.030501493	-0.044280094	0.67545062	-0.14843718	0.053086971	0.65167175	-0.12196725	0.31833591	0.89901971	-0.0060054216	0.26964807	0.98315552	0.1960752	0.25902264	0.98115057	-0.19272375	0.264423	0.74733929	0.0021428735	0.30273108	0.86166418	-0.11521786	0.41274161	0.49302588	0.12801219	0.38402554	0.50150525	0.23224211	0.23052464	0.62582996	0.1813204	0.30494501	0.11006443	0.11336713	0.28441083	0.09886454	0.20563757	0.36243689	0.34999542	0.24217961	0.20248744	0.05802401	0.15318964
3312	33.11	0.44027579	0.072139038	0.14753967	0.065662079	0.63715173	0.14681386	-0.0056702299	0.66625409	0.1832905	-0.15202452	0.65010022	0.030482679	-0.039710926	0.67811542	-0.14840112	0.057291718	0.65327386	-0.12202433	0.32755264	0.89681567	-0.0061249928	0.27899359	0.982138	0.19579688	0.2687056	0.98030621	-0.19279929	0.27185437	0.74562274	0.0020100331	0.31123383	0.86004321	-0.11492717	0.41506601	0.49221429	0.12769219	0.38645828	0.50095486	0.23193504	0.23389507	0.62645026	0.18114766	0.30507556	0.11002301	0.11347852	0.28455408	0.09869442	0.20579416	0.36399127	0.34953979	0.24199019	0.2025134	0.057943417	0.15316592
3313	33.12	0.4403909	0.07221254	0.14749615	0.069702141	0.63907654	0.14664597	-0.0012867538	0.66887207	0.18330167	-0.14788914	0.65384204	0.03048764	-0.035211826	0.68077979	-0.14836183	0.061436733	0.65499463	-0.12208872	0.3364823	0.89492542	-0.0062085581	0.28792984	0.98126617	0.1955853	0.27790692	0.9797597	-0.19278883	0.27864264	0.74423364	0.0018742034	0.31934662	0.85872839	-0.11456056	0.41749945	0.49134409	0.12721764	0.38905502	0.50040305	0.23147713	0.23749574	0.62708649	0.18078902	0.30521371	0.1099734	0.11357551	0.28473199	0.098543655	0.20594261	0.36564871	0.34910483	0.24170654	0.2025435	0.057887718	0.15315582
3314	33.13	0.44052692	0.072207695	0.14742947	0.073736252	0.6411991	0.14647562	0.0030854137	0.67161652	0.18331494	-0.14380705	0.65751178	0.030523209	-0.030793928	0.68346021	-0.14831615	0.065510643	0.65684558	-0.12215716	0.34503708	0.89342291	-0.0062623057	0.29640201	0.98056482	0.19544571	0.2865806	0.97953925	-0.19271165	0.28474634	0.74324463	0.0017452594	0.32700488	0.85776788	-0.1141494	0.42002612	0.49042194	0.12660644	0.3918013	0.49984399	0.23088403	0.24130368	0.62774615	0.18029045	0.3053587	0.10991908	0.11365652	0.28494238	0.098415413	0.20608131	0.36739642	0.34869016	0.24134004	0.202576	0.057855843	0.15315799
3315	33.14	0.44068036	0.072133881	0.14734288	0.077758911	0.64351379	0.1463033	0.0074406743	0.67449274	0.18333264	-0.13977779	0.66114948	0.030592867	-0.02646302	0.68618298	-0.14826297	0.06950853	0.65883411	-0.12222842	0.35312723	0.89236707	-0.0062922797	0.30437643	0.98006506	0.1953819	0.29470093	0.97967029	-0.19258374	0.2901998	0.74271521	0.0016363034	0.33415848	0.85720514	-0.11373035	0.42262653	0.48945682	0.12588495	0.39467355	0.49927057	0.23018019	0.24528767	0.62843451	0.17971065	0.30550876	0.10986233	0.11371876	0.28517993	0.098310501	0.20620778	0.36921878	0.34829144	0.2409073	0.20260971	0.057844864	0.15316978
3316	33.15	0.44084555	0.072004745	0.14724062	0.081769157	0.64600842	0.14613097	0.011779607	0.67750732	0.1833611	-0.13578717	0.66481714	0.030698824	-0.022215733	0.68898279	-0.14820099	0.073433907	0.66096497	-0.1222997	0.36067084	0.89179358	-0.0063025279	0.31184448	0.97980383	0.19539499	0.30226465	0.98017505	-0.19241685	0.29509619	0.74268103	0.0015550162	0.34077234	0.85707617	-0.11333981	0.42527716	0.48846039	0.12508456	0.39763849	0.49867804	0.22939568	0.24941197	0.62915417	0.17910847	0.30566098	0.10980421	0.11375947	0.28543616	0.098227264	0.2063197	0.37109616	0.34790317	0.24042819	0.202644	0.057850372	0.15318761
3317	33.16	0.44101459	0.071837067	0.14712817	0.085767593	0.64866895	0.1459641	0.016105459	0.68066711	0.18340967	-0.13181606	0.66858459	0.030844038	-0.018040178	0.69190057	-0.14812646	0.0772966	0.66324493	-0.12236462	0.3676048	0.89171399	-0.0062950912	0.31882306	0.97982196	0.19548199	0.30928839	0.98107306	-0.19221947	0.29955829	0.74315131	0.0014961284	0.34682855	0.85740802	-0.11300732	0.42794983	0.48744604	0.12423843	0.40065469	0.4980661	0.22856316	0.25363716	0.62990778	0.17853148	0.30581171	0.10974515	0.11377769	0.28570013	0.098161705	0.20641612	0.37300275	0.34752072	0.23992345	0.20267827	0.057866959	0.15320769
3318	33.17	0.44117764	0.071649391	0.1470126	0.089753311	0.65148456	0.14581079	0.020420259	0.68397864	0.18348796	-0.12784916	0.67251495	0.031032345	-0.013920763	0.69497827	-0.14803291	0.081107971	0.66568646	-0.12241415	0.3738963	0.8921203	-0.0062714543	0.32535071	0.98016077	0.19563451	0.31580237	0.98238031	-0.19199838	0.30370953	0.74411395	0.0014403051	0.35232922	0.85822028	-0.11275026	0.43061163	0.48642786	0.12337839	0.40367615	0.49743927	0.22771461	0.25792136	0.63069965	0.17800932	0.30595657	0.10968587	0.11377567	0.28596027	0.098108223	0.20649844	0.37490576	0.34714215	0.23941263	0.2027119	0.057888393	0.15322675
3319	33.18	0.44132379	0.071460159	0.14690247	0.093722099	0.65445245	0.14567903	0.024722517	0.68744971	0.18360315	-0.12388023	0.67665662	0.031266186	-0.0098435841	0.69825446	-0.14791353	0.084876785	0.66830737	-0.12243953	0.37954987	0.89299524	-0.0062335606	0.3314798	0.98086005	0.19583995	0.32184485	0.9841084	-0.19176006	0.30765552	0.74554559	0.0013609234	0.35729926	0.85952332	-0.11257185	0.43322723	0.48541931	0.1225325	0.40665619	0.49680609	0.22687851	0.26222357	0.63153534	0.17755367	0.30609091	0.10962819	0.11375941	0.28620523	0.09806073	0.20657043	0.37676926	0.34676883	0.23891321	0.20274429	0.057907928	0.15324196
3320	33.19	0.44144257	0.071285667	0.14680676	0.097666054	0.65757837	0.14557359	0.029006571	0.69109033	0.18375804	-0.11991267	0.68103937	0.031543154	-0.0057994986	0.70175909	-0.14776462	0.088607529	0.67112805	-0.12243543	0.38460834	0.89432153	-0.0061838074	0.33726715	0.98195557	0.19608452	0.32745862	0.98626147	-0.19151033	0.31147717	0.74741968	0.0012348732	0.36179114	0.86131818	-0.11246333	0.43575992	0.48443253	0.12172382	0.40955136	0.49617767	0.22607811	0.26650604	0.63242218	0.17716315	0.30621048	0.10957531	0.11373848	0.2864259	0.098013435	0.20663739	0.37855872	0.3464054	0.23844023	0.20277496	0.057919044	0.15325104
3321	33.2	0.4415249	0.071138359	0.14673302	0.10157394	0.66087445	0.14549471	0.033262611	0.69491248	0.18395009	-0.11595639	0.68567853	0.03185375	-0.0017845182	0.70551141	-0.1475876	0.09230098	0.67416656	-0.12240158	0.38914847	0.89608771	-0.0061248837	0.34276669	0.98347699	0.19635513	0.33268939	0.98883484	-0.19125208	0.31523331	0.74971228	0.0010513335	0.36588754	0.8635957	-0.11240883	0.43817413	0.48347818	0.12097057	0.41232367	0.4955665	0.22533136	0.27073383	0.63336823	0.17682971	0.30631174	0.10953126	0.11372418	0.28661597	0.097961563	0.20670514	0.38024503	0.34605859	0.23800616	0.20280353	0.057916462	0.15325227
3322	33.21	0.44156348	0.07102562	0.14668568	0.10543202	0.66435571	0.14543948	0.037477146	0.69892865	0.18417328	-0.11202361	0.69057733	0.032182495	0.0022010639	0.70951788	-0.14738792	0.095955734	0.67743427	-0.12234116	0.39327267	0.89828699	-0.0060593371	0.3480253	0.98544379	0.1966405	0.33758426	0.9918161	-0.19098288	0.31896448	0.75240277	0.00081480247	0.36969461	0.86633746	-0.11239031	0.44043951	0.48256592	0.1202868	0.4149422	0.49498508	0.22465164	0.27487558	0.63438269	0.17654433	0.3063924	0.10949952	0.11372649	0.28677298	0.097901764	0.20677867	0.38180515	0.3457348	0.23761983	0.20282951	0.057897194	0.15324493
3323	33.22	0.44155426	0.070949615	0.14666595	0.10922573	0.66803699	0.14540469	0.041634613	0.70315063	0.18442192	-0.10812584	0.69573004	0.032511337	0.0061536951	0.7137735	-0.14717325	0.099569359	0.68093365	-0.12225816	0.39709708	0.90091461	-0.005988349	0.35308096	0.98786285	0.19693182	0.34219125	0.99518524	-0.19069702	0.32269608	0.75547162	0.00054287863	0.37332352	0.8695155	-0.11239088	0.44253467	0.48170444	0.11968266	0.41738354	0.49444479	0.22404807	0.27890674	0.63547449	0.1763009	0.30645209	0.10948194	0.11375188	0.28689774	0.097832848	0.20686143	0.38322333	0.345439	0.23728687	0.20285263	0.057861565	0.15323001
3324	33.23	0.44149744	0.070908371	0.14667213	0.11294158	0.6719295	0.14538757	0.0457201	0.70758679	0.18469258	-0.10427211	0.70112549	0.032823429	0.010067439	0.71826331	-0.146952	0.1031385	0.68465833	-0.12215618	0.40073773	0.90396283	-0.0059104919	0.35796225	0.99072766	0.19722386	0.34655869	0.99891479	-0.19038931	0.32644025	0.75889905	0.00026173693	0.37687161	0.87309308	-0.11239603	0.44444836	0.48090164	0.11916513	0.41963251	0.49395438	0.22352612	0.28281149	0.63665051	0.17609743	0.30649234	0.10947863	0.11380271	0.28699365	0.097755905	0.20695479	0.38449274	0.34517496	0.23701187	0.2028728	0.057813423	0.15321132
3325	33.24	0.4413978	0.070896828	0.14670049	0.11656905	0.67603589	0.14538556	0.049722321	0.71223956	0.1849836	-0.10046808	0.7067511	0.033107376	0.013934958	0.72296753	-0.14673248	0.10665814	0.68859363	-0.12203858	0.40429733	0.90741827	-0.0058213806	0.36268835	0.99401868	0.1975161	0.35073328	1.0029705	-0.19005748	0.3301972	0.76266467	1.9046278e-06	0.3804126	0.87702631	-0.11239287	0.44617908	0.48016397	0.1187384	0.42168179	0.49351877	0.2230876	0.28658347	0.6379129	0.17593555	0.30651575	0.1094882	0.11387789	0.28706519	0.097673576	0.20705861	0.38561469	0.34494553	0.2367993	0.20288982	0.057759071	0.15319449
3326	33.25	0.44126428	0.070907639	0.14674612	0.12010221	0.68034613	0.14539546	0.053635811	0.71710187	0.18529355	-0.096715378	0.71259589	0.033360214	0.017749083	0.72786469	-0.146522	0.11012132	0.69271722	-0.12190912	0.40785593	0.91125958	-0.0057144017	0.36727139	0.99770703	0.19781184	0.35475632	1.0073154	-0.1897027	0.33395609	0.76674841	-0.00020472464	0.38399448	0.88126752	-0.1123688	0.44773276	0.47949536	0.11840313	0.42353094	0.49313809	0.22273004	0.29022458	0.63926038	0.17582007	0.30652585	0.10950811	0.11397351	0.287117	0.097589188	0.20717133	0.38659552	0.34475116	0.23665009	0.20290334	0.057705128	0.1531846
3327	33.26	0.44111145	0.07093203	0.14680341	0.12354078	0.68483673	0.14541229	0.057462112	0.72215527	0.18561882	-0.093011597	0.71864954	0.033585312	0.021504829	0.73293555	-0.14632549	0.11352086	0.69700378	-0.12177313	0.41146524	0.91545795	-0.0055822554	0.37171777	1.0017588	0.19811584	0.35866028	1.0119124	-0.18932898	0.33769601	0.77113129	-0.00032764405	0.38763916	0.88576941	-0.11231076	0.44911893	0.47889713	0.11815564	0.4251842	0.49280872	0.22244598	0.2937438	0.64068744	0.17575763	0.30652625	0.10953509	0.11408334	0.28715384	0.097506317	0.20729012	0.38744324	0.34458975	0.23655843	0.20291351	0.057656593	0.15318446
